<svg width="32" height="32" viewBox="0 0 32 32" fill="none" xmlns="http://www.w3.org/2000/svg">
<path fill-rule="evenodd" clip-rule="evenodd" d="M1.39136 26.0809L14.0352 27.7155C13.6655 26.698 13.4637 25.6007 13.4637 24.4558C13.4637 21.8182 14.533 19.4305 16.2612 17.7023C17.9894 15.9747 20.3771 14.9055 23.0141 14.9055C25.6511 14.9055 28.0394 15.9747 29.7676 17.7023C30.1317 18.067 30.4665 18.4611 30.7682 18.8796L30.855 2.55388L12.1259 0L1.39136 4.87043L1.39136 26.0809Z" fill="#C28F60"/>
<path fill-rule="evenodd" clip-rule="evenodd" d="M30.855 2.55388L30.1074 3.04105L22.5625 7.74784L1.39136 4.87043L12.1259 0L30.855 2.55388Z" fill="#AA7950"/>
<path fill-rule="evenodd" clip-rule="evenodd" d="M22.6399 14.9124V7.8697L30.8549 2.55396L31.0585 19.3056C30.6863 18.7254 30.2528 18.1877 29.7675 17.7024C28.0393 15.9748 25.651 14.9055 23.014 14.9055C22.8891 14.9055 22.7642 14.908 22.6399 14.9124Z" fill="#D2A06D"/>
<path fill-rule="evenodd" clip-rule="evenodd" d="M15.8889 0.512695L22.0241 1.34962L13.2425 6.59667L13.2369 15.6798L10.1122 13.5513L6.98682 15.3176L7.37718 5.7816L15.8889 0.512695Z" fill="#65472F"/>
<path fill-rule="evenodd" clip-rule="evenodd" d="M23.0142 16.9177C27.1776 16.9177 30.5521 20.2923 30.5521 24.4557C30.5521 28.6185 27.1776 31.9931 23.0142 31.9931C18.8514 31.9931 15.4768 28.6185 15.4768 24.4557C15.4768 20.2923 18.8514 16.9177 23.0142 16.9177Z" fill="#212529"/>
<path fill-rule="evenodd" clip-rule="evenodd" d="M19.7521 23.068C19.6453 22.9637 19.5466 22.8731 19.4842 22.7832L19.4948 22.7932L21.02 24.3184L21.0106 24.3271L19.7521 23.068ZM26.485 22.0337L26.6024 22.1536C26.9672 22.514 26.9484 22.7251 26.6049 23.0611L25.0816 24.5838L24.8155 24.3184L26.3476 22.7857C26.6387 22.5015 26.6967 22.306 26.485 22.0337ZM26.5037 26.0241L26.6049 26.1253C26.9484 26.4607 26.9672 26.6718 26.6024 27.0328L25.4919 28.1701C25.1503 28.5224 24.976 28.2963 24.6987 28.0146L23.1748 26.4907L21.6414 28.024C21.306 28.3681 21.0943 28.3869 20.7339 28.0221L19.5966 26.9116C19.5447 26.861 19.506 26.8148 19.4773 26.7711L20.4766 27.7467C20.8376 28.1114 21.0487 28.0927 21.3847 27.7492L22.9174 26.2158L24.4414 27.7398C24.7187 28.0215 24.893 28.247 25.2346 27.8947L26.3451 26.7573C26.643 26.4632 26.6855 26.2683 26.5037 26.0241Z" fill="#D13327"/>
<path fill-rule="evenodd" clip-rule="evenodd" d="M19.4947 22.7931C19.213 22.5158 18.9869 22.3416 19.3392 21.9993L20.4765 20.8894C20.8375 20.5247 21.0486 20.5428 21.384 20.8869L22.9174 22.4203L24.4413 20.8963C24.7186 20.6146 24.8929 20.3885 25.2345 20.7408L26.345 21.8781C26.7098 22.2391 26.691 22.4502 26.3475 22.7863L24.8154 24.3177L26.3475 25.8498C26.691 26.1858 26.7098 26.3969 26.345 26.7573L25.2345 27.8946C24.8929 28.2469 24.7186 28.0214 24.4413 27.7398L22.9174 26.2158L21.384 27.7491C21.0486 28.0926 20.8375 28.1114 20.4765 27.7466L19.3392 26.6361C18.9869 26.2945 19.213 26.1202 19.4947 25.8429L21.0199 24.3177L19.4947 22.7931Z" fill="white"/>
</svg>
