<svg width="32" height="32" viewBox="0 0 32 32" fill="none" xmlns="http://www.w3.org/2000/svg">
<path fill-rule="evenodd" clip-rule="evenodd" d="M1.39136 26.0809L14.0352 27.7155C13.6655 26.698 13.4637 25.6007 13.4637 24.4558C13.4637 21.8182 14.533 19.4305 16.2612 17.7023C17.9894 15.9747 20.3771 14.9055 23.0141 14.9055C25.6511 14.9055 28.0394 15.9747 29.7676 17.7023C30.1317 18.067 30.4665 18.4611 30.7682 18.8796L30.855 2.55388L12.1259 0L1.39136 4.87043L1.39136 26.0809Z" fill="#C28F60"/>
<path fill-rule="evenodd" clip-rule="evenodd" d="M30.855 2.55388L30.1074 3.04105L22.5625 7.74784L1.39136 4.87043L12.1259 0L30.855 2.55388Z" fill="#AA7950"/>
<path fill-rule="evenodd" clip-rule="evenodd" d="M22.6399 14.9124V7.8697L30.8549 2.55396L31.0585 19.3056C30.6863 18.7254 30.2528 18.1877 29.7675 17.7024C28.0393 15.9748 25.651 14.9055 23.014 14.9055C22.8891 14.9055 22.7642 14.908 22.6399 14.9124Z" fill="#D2A06D"/>
<path fill-rule="evenodd" clip-rule="evenodd" d="M15.8889 0.512695L22.0241 1.34962L13.2425 6.59667L13.2369 15.6798L10.1122 13.5513L6.98682 15.3176L7.37718 5.7816L15.8889 0.512695Z" fill="#65472F"/>
<path fill-rule="evenodd" clip-rule="evenodd" d="M23.0357 16.9338C27.1944 16.9338 30.5656 20.305 30.5656 24.4635C30.5656 28.622 27.1944 31.9931 23.0357 31.9931C18.877 31.9931 15.5063 28.622 15.5063 24.4635C15.5063 20.305 18.877 16.9338 23.0357 16.9338ZM22.3628 20.8019C22.36 20.9265 22.3809 20.9863 22.4892 20.9863H24.1593C24.6319 21.0241 25.0555 21.1493 25.4131 21.3907C25.6607 21.5594 25.8429 21.8729 25.9794 22.094C26.2214 22.4872 26.359 23.0557 26.4335 23.5137C26.4651 23.7116 26.4797 23.8978 26.4453 23.9829C26.4301 24.0235 26.4047 24.0512 26.3737 24.0636C26.1943 24.1352 26.0037 23.8887 25.9027 23.7703C25.4216 23.2074 24.7216 22.9745 23.897 22.9305H22.4508C22.3651 22.9451 22.3346 23.0083 22.3436 23.1059V23.7776C22.3386 24.0015 22.2257 24.0777 22.0024 24.0021L19.9476 22.3896L19.7451 22.2305L19.6932 22.1899C19.5285 22.0416 19.5962 21.794 19.7445 21.6772L19.9013 21.5543L21.871 20.0038C22.1107 19.8148 22.3628 19.7635 22.3628 20.1713V20.8019ZM23.7092 28.1256C23.7114 28.0004 23.6911 27.9401 23.5828 27.9401H21.9121C21.4395 27.9029 21.0159 27.7777 20.6588 27.5357C20.4101 27.367 20.2268 27.0518 20.0903 26.829C19.8432 26.4251 19.6802 25.7664 19.621 25.2943C19.603 25.1443 19.5996 25.0117 19.6255 24.944C19.6413 24.904 19.6673 24.8758 19.6989 24.8634C19.8777 24.7917 20.0677 25.0388 20.1687 25.1567C20.6504 25.7195 21.3504 25.9525 22.175 25.9965H23.6212C23.7063 25.9818 23.7368 25.9186 23.7283 25.8211V25.1493C23.7334 24.926 23.8457 24.8498 24.0696 24.9248L26.1244 26.5374L26.3263 26.6964L26.3776 26.737C26.5435 26.8854 26.4752 27.133 26.3269 27.2497L26.1701 27.3727L24.201 28.9232C23.9607 29.1121 23.7092 29.1634 23.7092 28.7557V28.1256Z" fill="#EC1414"/>
</svg>
