<svg width="32" height="32" viewBox="0 0 32 32" fill="none" xmlns="http://www.w3.org/2000/svg">
<g clip-path="url(#clip0_1471_22164)">
<path fill-rule="evenodd" clip-rule="evenodd" d="M20.1398 10.9026L20.2026 10.9183C20.2916 10.947 20.378 10.9654 20.4539 10.9706C20.5376 10.9758 20.6187 10.9706 20.692 10.9549C20.9066 10.913 21.2233 10.7141 21.5661 10.4995C21.9482 10.2614 22.3591 10.0075 22.7961 9.86096C23.0892 9.76152 24.1151 9.69347 25.0887 9.67515C26.1983 9.6516 27.3001 9.74581 27.4126 9.96826C27.499 10.141 27.5539 10.3608 27.5356 10.6068C27.5199 10.8031 27.4597 11.0151 27.3315 11.2297C27.041 11.7191 26.5149 12.0828 26.0177 12.4231C25.5126 12.7685 25.0494 13.0878 25.1279 13.3259C25.1331 13.3469 25.1829 13.3887 25.2588 13.4489C25.3687 13.5353 25.5283 13.6374 25.6932 13.7394C26.3632 14.1477 26.884 14.5795 27.3262 15.0898C27.7633 15.5949 28.1271 16.1707 28.483 16.8799C28.5877 17.0866 28.6871 17.2986 28.7813 17.5158C28.8834 17.7488 28.9802 17.9869 29.0718 18.2251L29.0927 18.301C29.1477 18.6281 29.221 18.8767 29.3178 19.0285C29.3649 19.1044 29.4094 19.141 29.4513 19.141L29.4644 19.1384H29.9878C30.0715 19.1384 30.1396 19.1332 30.1998 19.1306C30.697 19.0965 30.977 19.0782 31.2675 19.8241C31.469 20.3423 31.5371 21.0619 31.5057 21.7816C31.4743 22.5563 31.3303 23.344 31.1262 23.8831C31.0503 24.239 30.8907 24.5217 30.6394 24.7311C30.3882 24.9378 30.0611 25.0608 29.6502 25.0948L29.6188 25.0974H29.0378C28.7839 25.0974 28.5615 25.087 28.3992 25.0817C28.2422 25.0765 28.2108 25.0556 28.1899 25.0634C28.1611 25.0791 28.1977 25.0817 28.1558 25.1367C28.0512 25.2806 27.8837 25.5109 27.533 25.8721C27.2817 26.1312 26.9913 26.4164 26.7112 26.6808C26.4521 26.9241 26.1931 27.1571 25.9811 27.335L25.8502 27.4449C25.6095 27.6438 25.4917 27.7407 25.4865 27.7721C25.476 27.8296 25.5493 28.0024 25.6906 28.3452C25.7508 28.4891 25.7874 28.5755 25.8005 28.6095C25.9418 28.9576 26.0831 29.2952 26.214 29.5909C26.4312 30.0908 26.6694 30.6194 26.7453 30.7921L26.7531 30.8105C26.9284 31.258 26.8892 31.5982 26.6432 31.8416C26.4338 32.0483 26.1041 32.1268 25.6566 32.0928H23.5603C23.2672 32.1138 22.9872 32.0509 22.7281 31.9018C22.4795 31.7605 22.2518 31.5459 22.0503 31.2606L22.0293 31.2292C21.9534 31.0957 21.8723 30.9178 21.7886 30.7293C21.5818 30.2714 21.328 29.7034 21.1212 29.7846C19.6975 30.3394 18.3079 30.6691 16.8031 30.7189C15.3166 30.7686 13.7228 30.5435 11.8856 29.9887C11.3596 29.9128 11.2523 30.1379 11.0822 30.4912C11.0351 30.5906 10.9854 30.6979 10.9147 30.8288C10.8728 30.9151 10.8571 30.9518 10.8388 30.9832C10.5954 31.504 10.3625 32.0065 9.63235 32.153L9.55384 32.1609L6.84519 32.1399H6.81902C6.65153 32.1268 6.50497 32.0902 6.37674 32.0195C6.22757 31.9436 6.11242 31.8311 6.03129 31.6819C5.79052 31.2423 5.95278 30.9073 6.11503 30.5723H6.11242C6.13859 30.5147 6.16999 30.4545 6.17784 30.4415L6.18046 30.4388L7.13307 28.3557L7.15139 28.3216C7.25083 28.1489 7.28747 28.0076 7.26654 27.8977C7.24298 27.7904 7.16447 27.6857 7.03362 27.5836C6.84519 27.4502 6.65938 27.3115 6.48404 27.1675C6.30084 27.021 6.1255 26.8692 5.95539 26.7148C5.39534 26.2018 4.87717 25.5999 4.43489 24.9378C4.00831 24.3045 3.65239 23.611 3.3933 22.8913C3.19179 22.326 3.05047 21.7476 2.97981 21.164C2.9641 21.0305 2.95364 20.8918 2.94578 20.7584C2.06645 20.3344 1.44883 19.5807 1.15049 18.5862C0.849526 17.5734 0.886164 16.3146 1.33368 14.9119L2.09524 15.1553C1.69745 16.3957 1.66081 17.4923 1.91728 18.3559C2.10833 18.9919 2.46425 19.5022 2.95887 19.8424C2.96934 19.722 2.98504 19.6016 3.00074 19.4812C3.18917 18.178 3.69426 16.9636 4.41657 15.888C7.89725 10.6853 14.4634 9.99967 20.1398 10.9026Z" fill="#FF8985"/>
<path fill-rule="evenodd" clip-rule="evenodd" d="M24.4762 17.7149C24.8347 17.7149 25.1566 17.8588 25.3922 18.0917C25.6277 18.3246 25.769 18.6492 25.769 19.0077C25.769 19.3662 25.6251 19.6881 25.3922 19.9237C25.1592 20.1592 24.8347 20.3005 24.4762 20.3005C24.1203 20.3005 23.7958 20.1566 23.5628 19.9237C23.3195 19.6803 23.1834 19.3531 23.1834 19.0103C23.1834 18.6518 23.3273 18.3299 23.5628 18.0943C23.8036 17.851 24.1307 17.7149 24.4762 17.7149ZM10.7236 14.454C10.3677 14.577 9.97772 14.386 9.85472 14.0301C9.73172 13.6741 9.92276 13.2842 10.2787 13.1612C11.8097 12.6299 13.3616 12.3839 14.9292 12.3918C16.4916 12.3996 18.0618 12.664 19.6399 13.1507C20.001 13.2606 20.2052 13.6454 20.0926 14.0065C19.9801 14.3677 19.598 14.5718 19.2369 14.4593C17.7818 14.0091 16.3424 13.7657 14.9239 13.7579C13.5081 13.7527 12.1054 13.9751 10.7236 14.454Z" fill="#BC5050"/>
<path d="M14.2357 0C16.0493 0 17.6928 0.735391 18.8836 1.92615C20.0717 3.11429 20.8071 4.7578 20.8071 6.57403C20.8071 8.38765 20.0717 10.0312 18.8836 11.2219C17.6955 12.4101 16.052 13.1454 14.2357 13.1454C12.4221 13.1454 10.7786 12.4101 9.58784 11.2219C8.3997 10.0338 7.66431 8.39027 7.66431 6.57403C7.66431 4.76042 8.3997 3.11691 9.58784 1.92615C10.7786 0.735391 12.4221 0 14.2357 0ZM14.432 1.32685C17.4364 1.32685 19.8729 3.76332 19.8729 6.7677C19.8729 9.77207 17.4364 12.2085 14.432 12.2085C11.4276 12.2085 8.99115 9.77207 8.99115 6.7677C8.99115 3.76332 11.4276 1.32685 14.432 1.32685Z" fill="#FFED33"/>
<path fill-rule="evenodd" clip-rule="evenodd" d="M14.4321 1.3269C17.4364 1.3269 19.8729 3.76338 19.8729 6.76776C19.8729 9.77213 17.4364 12.2086 14.4321 12.2086C11.4277 12.2086 8.99121 9.77213 8.99121 6.76776C8.99121 3.76338 11.4277 1.3269 14.4321 1.3269Z" fill="#FAC900"/>
<path fill-rule="evenodd" clip-rule="evenodd" d="M14.2358 0.934326C17.3501 0.934326 19.873 3.45716 19.873 6.57146C19.873 6.60286 19.873 6.63688 19.873 6.66829C19.8206 3.7084 17.4051 1.32688 14.4347 1.32688C11.4304 1.32688 8.99388 3.76336 8.99388 6.76773C8.99388 9.73809 11.3754 12.1536 14.3353 12.206C14.3039 12.206 14.2699 12.206 14.2384 12.206C11.1242 12.206 8.60132 9.68313 8.60132 6.56884C8.5987 3.45978 11.1215 0.934326 14.2358 0.934326ZM16.6304 5.03525L15.123 5.27863C15.0838 5.17918 15.0471 5.09544 15.0131 5.02739L16.3478 4.81803C16.2588 4.42024 16.073 4.10358 15.7956 3.86281C15.8715 3.90468 15.9395 3.95179 16.005 4.00151C16.3242 4.25013 16.5336 4.59558 16.6304 5.03525ZM14.6362 4.65577L14.6179 4.64531V5.68166C14.5263 5.65549 14.4321 5.62932 14.3353 5.60315V4.43332C14.4766 4.50922 14.576 4.58511 14.6362 4.65577ZM16.1149 6.43275C16.1698 6.46939 16.2169 6.50603 16.2588 6.54528C16.6226 6.88027 16.8032 7.299 16.8032 7.81194C16.8032 8.11028 16.7377 8.38507 16.6069 8.63631C16.476 8.88755 16.3085 9.09429 16.107 9.2644C15.9055 9.43189 15.6883 9.55228 15.458 9.62817C15.2277 9.70407 14.9503 9.74856 14.6179 9.76164V10.5389H14.0291V10.2092H14.3353V9.44759C14.6676 9.43451 14.9477 9.39002 15.1754 9.31674C15.4057 9.24346 15.6203 9.12308 15.8244 8.95821C16.0259 8.79333 16.1934 8.5892 16.3242 8.3432C16.4551 8.09981 16.5205 7.82764 16.5205 7.53715C16.5205 7.10272 16.3844 6.73633 16.1149 6.43275ZM13.7491 9.73024C13.4795 9.6936 13.2518 9.63864 13.0686 9.56798C12.8226 9.47377 12.608 9.34291 12.4301 9.17542C12.3385 9.08906 12.2573 9.00008 12.1867 8.90848C12.3568 9.05504 12.5583 9.1728 12.786 9.25917C13.032 9.35076 13.3539 9.41619 13.7517 9.45021V9.73024H13.7491ZM13.2152 7.76745L13.4272 7.74128C13.469 7.96896 13.5214 8.1443 13.5868 8.26469C13.4795 8.19664 13.3984 8.12075 13.3408 8.04224C13.2937 7.9742 13.2518 7.8826 13.2152 7.76745ZM13.7491 7.10795C13.3487 6.98757 13.0582 6.88288 12.8723 6.79129C12.7101 6.71016 12.5635 6.59501 12.4327 6.44584C12.485 6.47986 12.5374 6.51126 12.5897 6.53743C12.8174 6.64735 13.2047 6.7782 13.7491 6.92999V7.10795ZM14.3353 3.1562H14.6179V3.39697C14.5263 3.3865 14.4321 3.37604 14.3353 3.3708V3.1562ZM13.7491 4.76569C13.7177 4.78924 13.6915 4.81541 13.6705 4.84158C13.6025 4.92533 13.5685 5.02739 13.5685 5.14255C13.5685 5.23938 13.592 5.32836 13.6365 5.40425C13.524 5.35453 13.4429 5.29433 13.3905 5.22891C13.3225 5.14255 13.2858 5.03786 13.2858 4.9201C13.2858 4.80756 13.3199 4.70811 13.3879 4.62437C13.456 4.54062 13.5763 4.46996 13.7491 4.41501V4.76569ZM14.9372 7.50574C14.8508 7.45602 14.7435 7.40891 14.6179 7.36442V8.30133C14.5368 8.34058 14.4426 8.37199 14.3353 8.39554V7.09748C14.597 7.18908 14.7723 7.28853 14.8613 7.39321C14.8927 7.43247 14.9189 7.4691 14.9372 7.50574Z" fill="#D49000"/>
<path d="M16.3478 4.81548L14.8404 5.05363C14.7645 4.86259 14.6964 4.73173 14.6362 4.65846C14.576 4.58518 14.4766 4.5119 14.3353 4.43601V5.60583C15.1544 5.82566 15.6988 6.05596 15.9762 6.29673C16.3399 6.62386 16.5205 7.03736 16.5205 7.53983C16.5205 7.83294 16.4551 8.1025 16.3242 8.34588C16.1934 8.59189 16.0259 8.79602 15.8244 8.96089C15.6229 9.12576 15.4056 9.24353 15.1753 9.31943C14.945 9.39532 14.665 9.43719 14.3353 9.45028V10.2118H13.7464V9.44766C13.3513 9.41364 13.0294 9.35083 12.7807 9.25662C12.5347 9.16502 12.3201 9.03679 12.1422 8.87191C11.9642 8.70965 11.8255 8.53169 11.7287 8.34327C11.6319 8.15484 11.5586 7.92454 11.5115 7.6576L13.1419 7.46917C13.189 7.73349 13.257 7.92715 13.3382 8.0423C13.4193 8.16007 13.5554 8.26475 13.7464 8.35635V6.92744C13.1995 6.77827 12.8148 6.6448 12.5871 6.53488C12.3594 6.42497 12.1631 6.24701 11.9956 6.001C11.8281 5.75762 11.7444 5.45928 11.7444 5.10859C11.7444 4.62967 11.9119 4.22664 12.2469 3.90475C12.5845 3.58285 13.0817 3.40227 13.7464 3.36825V2.97046H14.3353V3.36825C14.9398 3.40489 15.403 3.54883 15.7223 3.79483C16.0416 4.04607 16.251 4.38367 16.3478 4.81548ZM13.7491 4.41507C13.5763 4.47265 13.4559 4.54069 13.3879 4.62444C13.3199 4.70818 13.2858 4.80763 13.2858 4.92016C13.2858 5.03793 13.3199 5.13999 13.3905 5.22897C13.4586 5.31795 13.5789 5.39123 13.7517 5.44881V4.41507H13.7491ZM14.3353 8.39561C14.5656 8.34327 14.7304 8.25952 14.8377 8.14175C14.945 8.02399 14.9974 7.89313 14.9974 7.74658C14.9974 7.61834 14.9529 7.50319 14.8613 7.39589C14.7723 7.28859 14.5944 7.18915 14.3353 7.10017V8.39561Z" fill="#FFED33"/>
</g>
<defs>
<clipPath id="clip0_1471_22164">
<rect width="32" height="32" fill="white"/>
</clipPath>
</defs>
</svg>
