<svg width="32" height="32" viewBox="0 0 32 32" fill="none" xmlns="http://www.w3.org/2000/svg">
<path d="M28.3672 22.0096H25.8665L25.8677 7.89465C25.8653 5.74427 24.1224 4.00122 21.9722 4H6.96846C4.77757 4.00119 3.00122 5.77629 3 7.96724C3 8.13641 3.06672 8.29723 3.18585 8.41639C3.30498 8.53552 3.46701 8.60343 3.635 8.60343L9.67156 8.65108V17.0976H9.32488C7.54502 17.0917 5.87581 17.9637 4.86449 19.4279C3.85185 20.8921 3.62668 22.7614 4.26046 24.4244C4.89544 26.0876 6.30837 27.3313 8.03953 27.7482C9.76937 28.1663 11.5944 27.7041 12.9181 26.5139C13.0968 26.5485 13.2767 26.5699 13.4589 26.5783H25.0639C27.2345 26.5747 28.9954 24.8163 29 22.6446C29 22.2955 28.7174 22.0108 28.3672 22.0096ZM4.34355 7.33836C4.63781 6.11961 5.73147 5.26422 6.98477 5.27139C8.23926 5.27854 9.3222 6.14822 9.60096 7.37053L4.34355 7.33836ZM9.32821 26.6262C7.65793 26.6262 6.1521 25.6195 5.51225 24.0767C4.87367 22.5327 5.22632 20.7563 6.40814 19.5757C7.58876 18.3939 9.36505 18.0413 10.9091 18.6798C12.4519 19.3196 13.4586 20.8255 13.4586 22.4958C13.4586 24.7772 11.6096 26.6262 9.32821 26.6262ZM16.3334 22.6196C16.3298 23.992 15.2981 25.144 13.9352 25.3013C14.8001 23.8813 14.9633 22.1432 14.3772 20.5872C13.791 19.0325 12.5223 17.8328 10.9354 17.3361V7.96724C10.9354 6.96652 10.5554 6.00271 9.87157 5.27002H21.9721C23.4208 5.2724 24.5955 6.44588 24.5967 7.89456V22.0001L16.9721 21.9774C16.8041 21.9798 16.6444 22.0454 16.5241 22.1621C16.4014 22.2824 16.3322 22.448 16.3334 22.6196ZM25.0636 25.3168H16.5429C17.0766 24.745 17.4281 24.0278 17.5532 23.2546L27.6521 23.2832C27.3579 24.4733 26.2892 25.3097 25.0633 25.3109L25.0636 25.3168ZM12.9368 7.89459C12.9368 7.54316 13.2215 7.25961 13.573 7.25961H22.2864C22.6378 7.25961 22.9225 7.54315 22.9225 7.89459C22.9225 8.24603 22.6378 8.52957 22.2864 8.52957H13.573C13.2215 8.52957 12.9368 8.24603 12.9368 7.89459ZM12.9368 10.7312C12.9368 10.3809 13.2215 10.0962 13.573 10.0962H22.2864C22.6378 10.0962 22.9225 10.3809 22.9225 10.7312C22.9225 11.0826 22.6378 11.3674 22.2864 11.3674H13.573C13.2215 11.3674 12.9368 11.0826 12.9368 10.7312ZM22.2864 14.2004H13.573C13.2215 14.2004 12.9368 13.9168 12.9368 13.5654C12.9368 13.214 13.2215 12.9304 13.573 12.9304H22.2864C22.6378 12.9304 22.9226 13.214 22.9226 13.5654C22.9226 13.9168 22.6378 14.2004 22.2864 14.2004ZM22.2864 17.037L14.5261 17.0382C14.1746 17.0382 13.8899 16.7534 13.8899 16.402C13.8899 16.0518 14.1746 15.767 14.5261 15.767H22.2864C22.6378 15.767 22.9226 16.0518 22.9226 16.402C22.9226 16.7534 22.6378 17.0382 22.2864 17.0382V17.037ZM22.2864 19.8736L16.7491 19.8748C16.3988 19.8748 16.1141 19.59 16.1141 19.2398C16.1141 18.8884 16.3988 18.6036 16.7491 18.6036H22.2864C22.6378 18.6036 22.9226 18.8884 22.9226 19.2398C22.9226 19.59 22.6378 19.8748 22.2864 19.8748V19.8736ZM11.2783 23.5252C11.2437 24.2995 10.7112 24.9607 9.96303 25.1609V25.504C9.96303 25.8554 9.67949 26.1402 9.32806 26.1402C8.97662 26.1402 8.69308 25.8554 8.69308 25.504V25.1609C8.2916 25.0453 7.94013 24.8023 7.68877 24.4687C7.55891 24.1935 7.64111 23.8659 7.88534 23.6848C8.13076 23.5049 8.46911 23.5228 8.69306 23.7289C8.84555 23.9088 9.0731 24.0089 9.30897 23.9981C9.67709 23.9981 9.99876 23.7789 9.99876 23.5252C9.99876 23.2714 9.68066 23.0546 9.30897 23.0546C8.22841 23.0546 7.35158 22.2695 7.35158 21.3104C7.38375 20.5242 7.92938 19.8534 8.69303 19.6616V19.4615C8.69303 19.1112 8.97657 18.8265 9.32801 18.8265C9.67944 18.8265 9.96298 19.1112 9.96298 19.4615V19.6652C10.3978 19.7903 10.7743 20.0631 11.028 20.4372C11.1913 20.7291 11.0995 21.0984 10.8184 21.2806C10.5372 21.4617 10.1631 21.395 9.96298 21.127C9.81049 20.9328 9.57462 20.8256 9.32801 20.8375C8.96227 20.8375 8.64179 21.0567 8.64179 21.3104C8.64179 21.5642 8.95989 21.7834 9.32801 21.7834C10.4014 21.7846 11.2783 22.5661 11.2783 23.5252Z" fill="#333333"/>
</svg>
