<svg width="32" height="32" viewBox="0 0 32 32" fill="none" xmlns="http://www.w3.org/2000/svg">
<path fill-rule="evenodd" clip-rule="evenodd" d="M28.9592 23.9294C28.9468 23.8152 28.895 23.7089 28.8128 23.6287C28.7305 23.5485 28.623 23.4993 28.5085 23.4898L27.8476 23.4345C27.7668 23.4274 27.6894 23.3983 27.6238 23.3504C27.5583 23.3025 27.5071 23.2376 27.4758 23.1627C27.4445 23.0879 27.4342 23.0058 27.4461 22.9256C27.4581 22.8453 27.4917 22.7698 27.5435 22.7072L27.9665 22.1984C28.0398 22.1097 28.0799 21.9983 28.0799 21.8832C28.0799 21.7681 28.0398 21.6567 27.9665 21.568C27.7587 21.3132 27.5242 21.0814 27.2669 20.8767C27.1789 20.8031 27.0678 20.7628 26.9531 20.7628C26.8384 20.7628 26.7273 20.8031 26.6393 20.8767L26.1332 21.3025C26.0718 21.357 25.9965 21.3933 25.9156 21.4076C25.8348 21.4219 25.7515 21.4136 25.6751 21.3836C25.5987 21.3535 25.5321 21.3029 25.4827 21.2374C25.4332 21.1718 25.4029 21.0939 25.3949 21.0122L25.3341 20.3513C25.3242 20.237 25.2745 20.1298 25.1937 20.0485C25.1128 19.9671 25.0059 19.9167 24.8917 19.9061C24.5645 19.8702 24.2344 19.8702 23.9073 19.9061C23.7931 19.9186 23.6868 19.9703 23.6066 20.0526C23.5263 20.1348 23.4772 20.2424 23.4676 20.3568L23.4123 21.0149C23.4057 21.096 23.377 21.1738 23.3293 21.2397C23.2815 21.3056 23.2167 21.3572 23.1417 21.3888C23.0668 21.4204 22.9846 21.4309 22.9041 21.4191C22.8236 21.4073 22.7478 21.3737 22.6851 21.3219L22.1735 20.8988C22.0855 20.8252 21.9744 20.7849 21.8597 20.7849C21.745 20.7849 21.6339 20.8252 21.5459 20.8988C21.2908 21.1073 21.0582 21.3417 20.8518 21.5984C20.7792 21.6869 20.7396 21.7978 20.7396 21.9122C20.7396 22.0267 20.7792 22.1376 20.8518 22.2261L21.2804 22.7321C21.3323 22.7931 21.3668 22.8671 21.3802 22.9461C21.3936 23.0251 21.3855 23.1063 21.3566 23.181C21.3277 23.2558 21.2792 23.3214 21.2161 23.3708C21.1531 23.4203 21.0778 23.4518 20.9984 23.4621L20.3403 23.5229C20.226 23.5328 20.1188 23.5825 20.0374 23.6634C19.956 23.7443 19.9057 23.8511 19.8951 23.9654C19.8591 24.2925 19.8591 24.6226 19.8951 24.9498C19.9052 25.0661 19.9564 25.175 20.0395 25.2571C20.1226 25.3391 20.2321 25.389 20.3485 25.3977L21.0066 25.453C21.0877 25.4596 21.1655 25.4884 21.2314 25.5361C21.2973 25.5838 21.3489 25.6486 21.3805 25.7236C21.4121 25.7986 21.4226 25.8808 21.4108 25.9613C21.399 26.0418 21.3654 26.1175 21.3136 26.1802L20.8905 26.689C20.8167 26.7775 20.7763 26.8891 20.7763 27.0043C20.7763 27.1195 20.8167 27.231 20.8905 27.3195C21.0983 27.5743 21.3328 27.806 21.5901 28.0108C21.6781 28.0843 21.7892 28.1246 21.9039 28.1246C22.0187 28.1246 22.1298 28.0843 22.2178 28.0108L22.7238 27.5849C22.7848 27.5315 22.8592 27.4957 22.939 27.4815C23.0188 27.4672 23.101 27.475 23.1767 27.504C23.2524 27.5331 23.3187 27.5822 23.3685 27.6462C23.4183 27.7101 23.4497 27.7865 23.4593 27.867L23.5202 28.5279C23.53 28.6421 23.5798 28.7493 23.6606 28.8307C23.7415 28.9121 23.8484 28.9625 23.9626 28.973C24.2897 29.009 24.6198 29.009 24.947 28.973C25.0611 28.961 25.1673 28.9093 25.2472 28.8269C25.3271 28.7446 25.3754 28.6367 25.3839 28.5223L25.4419 27.8642C25.4486 27.7831 25.4773 27.7054 25.525 27.6395C25.5727 27.5736 25.6376 27.522 25.7125 27.4904C25.7875 27.4587 25.8697 27.4482 25.9502 27.46C26.0307 27.4718 26.1065 27.5055 26.1692 27.5573L26.678 27.9804C26.7664 28.0541 26.878 28.0945 26.9932 28.0945C27.1084 28.0945 27.2199 28.0541 27.3084 27.9804C27.5632 27.7726 27.795 27.538 27.9997 27.2808C28.0733 27.1927 28.1136 27.0817 28.1136 26.9669C28.1136 26.8522 28.0733 26.7411 27.9997 26.6531L27.5739 26.1471C27.5215 26.0849 27.4872 26.0096 27.4746 25.9294C27.462 25.8491 27.4716 25.7669 27.5023 25.6917C27.5331 25.6165 27.5839 25.5512 27.6491 25.5028C27.7144 25.4543 27.7916 25.4247 27.8725 25.4171L28.5334 25.3562C28.6477 25.3463 28.7549 25.2966 28.8362 25.2158C28.9176 25.1349 28.968 25.028 28.9786 24.9138C29.0066 24.5859 29.0001 24.256 28.9592 23.9294ZM24.4271 26.9185C23.9349 26.9185 23.4538 26.7726 23.0445 26.4991C22.6353 26.2257 22.3163 25.837 22.1279 25.3823C21.9396 24.9275 21.8903 24.4271 21.9863 23.9444C22.0823 23.4616 22.3194 23.0182 22.6674 22.6702C23.0155 22.3221 23.4589 22.0851 23.9416 21.9891C24.4244 21.8931 24.9248 21.9423 25.3795 22.1307C25.8342 22.3191 26.2229 22.638 26.4964 23.0473C26.7698 23.4565 26.9158 23.9377 26.9158 24.4299C26.9158 25.0899 26.6536 25.7229 26.1869 26.1896C25.7202 26.6563 25.0872 26.9185 24.4271 26.9185ZM16.7096 15.6229C16.7096 15.951 16.6123 16.2718 16.43 16.5446C16.2477 16.8175 15.9886 17.0301 15.6854 17.1557C15.3823 17.2813 15.0487 17.3141 14.7268 17.2501C14.405 17.1861 14.1094 17.0281 13.8774 16.7961C13.6453 16.564 13.4873 16.2684 13.4233 15.9466C13.3593 15.6247 13.3921 15.2912 13.5177 14.988C13.6433 14.6848 13.8559 14.4257 14.1288 14.2434C14.4016 14.0611 14.7224 13.9638 15.0505 13.9638C15.4905 13.9638 15.9125 14.1386 16.2237 14.4498C16.5348 14.7609 16.7096 15.1829 16.7096 15.6229ZM18.5788 21.5265H11.5139C11.5099 21.4787 11.5099 21.4306 11.5139 21.3827C11.6241 20.5266 12.0423 19.74 12.6904 19.1699C13.3386 18.5998 14.1722 18.2854 15.0353 18.2854C15.8985 18.2854 16.7321 18.5998 17.3802 19.1699C18.0283 19.74 18.4466 20.5266 18.5567 21.3827C18.5681 21.4299 18.5755 21.478 18.5788 21.5265ZM24.911 11.7959C24.375 11.7921 23.8585 11.5937 23.4577 11.2377C23.057 10.8817 22.7991 10.3922 22.7321 9.86033H27.09C27.0251 10.3924 26.7676 10.8822 26.3661 11.2373C25.9646 11.5924 25.447 11.7882 24.911 11.7876V11.7959ZM17.7631 9.32113L17.4479 5.32826H21.1615L22.1044 9.32113H17.7631ZM21.7173 5.32826H25.4115L26.9821 9.32113H22.6602L21.7173 5.32826ZM16.9059 5.32826L17.2184 9.32113H12.8716L13.1868 5.32826H16.9059ZM12.3296 9.32113H7.98833L8.92848 5.32826H12.6421L12.3296 9.32113ZM7.42147 9.32113H3.11061L4.67845 5.32826H8.37268L7.42147 9.32113ZM25.3258 4.78629H4.76693V3.75212C4.76838 3.55262 4.84847 3.36174 4.9898 3.22092C5.13114 3.08011 5.32231 3.00072 5.52182 3H24.5654C24.7663 3 24.959 3.07982 25.1011 3.22191C25.2432 3.364 25.323 3.55671 25.323 3.75765L25.3258 4.78629ZM5.17894 11.7876C4.64186 11.7874 4.12351 11.5902 3.72198 11.2335C3.32044 10.8768 3.06358 10.3853 3 9.85204H7.35787C7.29429 10.3853 7.03743 10.8768 6.6359 11.2335C6.23437 11.5902 5.71602 11.7874 5.17894 11.7876ZM7.94409 9.85204H12.2909C12.2252 10.3836 11.9674 10.8729 11.5661 11.2276C11.1648 11.5824 10.6476 11.7782 10.112 11.7782C9.57633 11.7782 9.05917 11.5824 8.65785 11.2276C8.25654 10.8729 7.99875 10.3836 7.93303 9.85204H7.94409ZM12.8771 9.85204H17.2239C17.1582 10.3836 16.9004 10.8729 16.4991 11.2276C16.0978 11.5824 15.5806 11.7782 15.045 11.7782C14.5094 11.7782 13.9922 11.5824 13.5909 11.2276C13.1896 10.8729 12.9318 10.3836 12.8661 9.85204H12.8771ZM19.9891 11.7876C19.453 11.7838 18.9366 11.5854 18.5358 11.2294C18.135 10.8734 17.8771 10.3839 17.8101 9.85204H22.1569C22.0934 10.3853 21.8365 10.8768 21.435 11.2335C21.0334 11.5902 20.5151 11.7874 19.978 11.7876H19.9891ZM20.473 26.3351C20.3784 26.4493 20.3092 26.5823 20.2701 26.7254C20.231 26.8684 20.2228 27.0182 20.2462 27.1646H5.77897C5.51127 27.1639 5.25469 27.0574 5.06513 26.8684C4.87557 26.6794 4.76839 26.4231 4.76693 26.1554V12.2992C4.90335 12.3193 5.04105 12.3294 5.17894 12.3296C5.37501 12.3298 5.57057 12.3094 5.76238 12.2688V21.803C5.76238 21.8764 5.79152 21.9467 5.84337 21.9985C5.89523 22.0504 5.96556 22.0795 6.0389 22.0795H20.2241C20.2523 22.2697 20.3338 22.4481 20.4592 22.5938L20.7661 22.9588L20.2905 23.0031C20.0512 23.0245 19.8269 23.1287 19.6562 23.2978C19.4856 23.467 19.3794 23.6903 19.3559 23.9294C19.3168 24.2971 19.3168 24.6678 19.3559 25.0355C19.382 25.2742 19.4904 25.4963 19.6624 25.6638C19.8345 25.8313 20.0595 25.9337 20.2988 25.9535L20.7744 25.9922L20.473 26.3351ZM24.8972 12.3296C25.036 12.3293 25.1746 12.3192 25.312 12.2992V19.4748C25.1972 19.4162 25.0725 19.3796 24.9442 19.3669C24.7679 19.3481 24.5907 19.3388 24.4133 19.3393H24.3221V12.2688C24.5157 12.3097 24.7131 12.3301 24.911 12.3296H24.8972ZM24.4271 22.5026C24.0443 22.5026 23.6701 22.6161 23.3518 22.8288C23.0335 23.0415 22.7854 23.3438 22.6389 23.6975C22.4924 24.0512 22.454 24.4403 22.5287 24.8158C22.6034 25.1913 22.7878 25.5362 23.0585 25.8069C23.3292 26.0776 23.6741 26.2619 24.0495 26.3366C24.425 26.4113 24.8142 26.373 25.1679 26.2265C25.5215 26.08 25.8238 25.8319 26.0365 25.5136C26.2492 25.1953 26.3627 24.821 26.3627 24.4382C26.3627 23.9248 26.1588 23.4325 25.7958 23.0695C25.4328 22.7065 24.9405 22.5026 24.4271 22.5026Z" fill="#333333"/>
</svg>
