<svg width="24" height="28" viewBox="0 0 24 28" fill="none" xmlns="http://www.w3.org/2000/svg">
<path fill-rule="evenodd" clip-rule="evenodd" d="M21.9977 9.16892L12.8672 14.441V24.9886L17.0471 22.5747L17.0483 22.5759L21.9977 19.7188L21.9977 9.16892ZM5.43351 9.26438L2.96055 7.83699L12.0965 2.56259L14.5695 3.98999L5.43351 9.26438ZM8.1133 10.8111L6.96774 10.1497L16.1037 4.87531L17.0504 5.42195L17.0709 5.43331L8.1133 10.8111ZM18.5917 6.31178L21.2328 7.83693L12.0968 13.1113L9.63411 11.6896L18.5917 6.31178ZM6.33015 11.5565V13.0851L7.26091 13.6226V12.0941L6.33015 11.5565ZM8.80084 12.9828V14.9534C8.80084 15.3784 8.45649 15.7239 8.03033 15.7239C7.87008 15.7239 7.72234 15.675 7.59959 15.5921L5.17551 14.1919C4.93003 14.0499 4.79252 13.7919 4.79252 13.5271H4.79025V10.6666L2.19567 9.16875V19.7187L7.1029 22.5519L7.14609 22.5747L11.326 24.9885V14.4409L8.80084 12.9828ZM3.19129 19.4162C2.82422 19.2037 2.6992 18.7332 2.91172 18.3661C3.12424 17.9991 3.59475 17.874 3.96183 18.0866L5.60742 19.0366C5.9745 19.2492 6.09951 19.7197 5.88699 20.0868C5.67448 20.4538 5.20396 20.5788 4.83689 20.3663L3.19129 19.4162ZM12.4888 1.01798L16.4731 3.31819C16.4811 3.32273 16.489 3.32728 16.497 3.33182L18.9325 4.73763C18.9552 4.74899 18.9779 4.76263 19.0007 4.77741L23.109 7.14921C23.2397 7.21399 23.3533 7.31627 23.4317 7.45266C23.5022 7.57426 23.5352 7.70609 23.5352 7.83792H23.5374V20.1597C23.5374 20.4711 23.3522 20.7393 23.0862 20.8609L17.8153 23.9044L17.8165 23.9055L12.5272 26.9592C12.4045 27.0422 12.2556 27.091 12.0965 27.091C11.9363 27.091 11.7885 27.0421 11.6658 26.9592L6.37655 23.9055L6.33678 23.8805L1.04435 20.8245C0.79773 20.6825 0.660222 20.4256 0.659087 20.1597H0.655677L0.654541 7.83703C0.654541 7.52565 0.839786 7.25743 1.10573 7.13582L11.7147 1.01131C11.9636 0.868111 12.2592 0.881604 12.4888 1.01798Z" fill="#333333"/>
</svg>
