<svg width="32" height="32" viewBox="0 0 32 32" fill="none" xmlns="http://www.w3.org/2000/svg">
<path d="M27.9743 21.8424H27.6369V16.8963C27.6369 16.8004 27.5986 16.7078 27.5308 16.6401C27.4631 16.5724 27.3706 16.5352 27.2758 16.5352H24.9816V11.5856C24.9816 11.4897 24.9444 11.3983 24.8767 11.3306C24.8089 11.2629 24.7164 11.2245 24.6205 11.2245H23.7561V5.79188C23.7561 5.69596 23.7177 5.60342 23.65 5.53571C23.5823 5.468 23.4909 5.43076 23.3949 5.43076H21.3264V3.36111C21.3264 3.26519 21.2881 3.17379 21.2203 3.10608C21.1526 3.03837 21.0612 3 20.9653 3H7.9178C7.82188 3 7.73048 3.03837 7.66277 3.10608L3.10608 7.66277C3.03837 7.73048 3 7.82188 3 7.9178V26.2081C3 26.304 3.03837 26.3966 3.10608 26.4643C3.17379 26.532 3.26519 26.5692 3.36111 26.5692H5.43076V28.6389C5.43076 28.7348 5.46913 28.8262 5.53684 28.8939C5.60455 28.9616 5.69596 29 5.79188 29H23.3964C23.595 29 23.7564 28.8386 23.7564 28.6389V23.8349H27.9748C28.0695 23.8349 28.1621 23.7977 28.2298 23.73C28.2975 23.6611 28.3359 23.5697 28.3359 23.4738V22.2031C28.3359 22.1072 28.2975 22.0158 28.2298 21.9481C28.1621 21.8804 28.0695 21.842 27.9748 21.842L27.9743 21.8424ZM19.3122 17.2551H19.9013V18.475L19.5673 18.141C19.4262 18.0011 19.1972 18.0011 19.0561 18.141L18.7221 18.475L18.7232 17.2551H19.3122ZM18.2244 19.6802C18.3587 19.7366 18.5144 19.705 18.6171 19.6023L19.31 18.9095L20.0051 19.6023C20.1089 19.705 20.2635 19.7366 20.3989 19.6802C20.5344 19.6249 20.6224 19.4929 20.6213 19.3473V17.2551H21.603L21.6041 21.8424H17.0191V17.2551H18.0009V19.3473C18.0009 19.4929 18.0889 19.6249 18.2244 19.6802ZM26.9148 21.8424H22.3275V17.2551H23.3093V19.3473C23.3093 19.4929 23.3973 19.6249 23.5327 19.6802C23.6681 19.7366 23.8227 19.705 23.9265 19.6023L24.6217 18.9094L25.3168 19.6023H25.3157C25.4195 19.705 25.5741 19.7366 25.7095 19.6802C25.8438 19.6249 25.9318 19.4928 25.9318 19.3473V17.2551H26.9136L26.9148 21.8424ZM25.2108 17.2551V18.475L24.8779 18.141H24.8768C24.7357 18.001 24.5067 18.001 24.3656 18.141L24.0316 18.475V17.2551H25.2108ZM24.2606 16.5328H19.6733V11.9467H20.6551V14.0378C20.6551 14.1834 20.7431 14.3154 20.8785 14.3718C21.0128 14.4271 21.1685 14.3966 21.2724 14.2928L21.9652 13.5999L22.6581 14.2928C22.7619 14.3966 22.9177 14.4271 23.052 14.3718C23.1874 14.3154 23.2754 14.1833 23.2754 14.0378V11.9467H24.2572L24.2606 16.5328ZM21.3773 11.9467H22.5555V13.1666L22.2214 12.8326C22.1537 12.7649 22.0623 12.7265 21.9664 12.7265C21.8705 12.7265 21.7791 12.7649 21.7114 12.8326L21.3774 13.1666L21.3773 11.9467ZM23.034 6.15297V11.2245H21.3265V6.15297H23.034ZM7.55686 4.23342V7.55683H4.23345L7.55686 4.23342ZM3.7224 8.27906H7.91798C8.0139 8.27906 8.10643 8.2407 8.17414 8.17299C8.24185 8.10528 8.27909 8.01387 8.27909 7.91795V3.72237H20.6044V11.2246H19.3122C19.1125 11.2246 18.9511 11.386 18.9511 11.5857V16.533H16.6581C16.4583 16.533 16.2969 16.6955 16.2969 16.8941V21.8425H15.9606C15.7609 21.8425 15.5995 22.0039 15.5995 22.2036V23.4743C15.5995 23.5702 15.6368 23.6616 15.7045 23.7305C15.7722 23.7982 15.8647 23.8354 15.9606 23.8354H20.6043V25.8475H3.72203L3.7224 8.27906ZM23.0342 28.2782H6.15314V26.5696H20.9655C21.0614 26.5696 21.1528 26.5324 21.2205 26.4647C21.2882 26.397 21.3266 26.3044 21.3266 26.2085V23.8353H23.034L23.0342 28.2782ZM27.6126 23.1131H16.3221V22.5646H27.6126V23.1131ZM9.64382 23.0826V23.9222C9.64382 24.017 9.60545 24.1095 9.53774 24.1772C9.47003 24.2449 9.37862 24.2833 9.2827 24.2833H6.27418C6.07557 24.2833 5.91307 24.1208 5.91307 23.9222V20.916C5.91307 20.7162 6.07557 20.5549 6.27418 20.5549H8.30093C8.50068 20.5549 8.66205 20.7162 8.66205 20.916C8.66205 21.1146 8.50068 21.2771 8.30093 21.2771H6.6353V23.5611H8.91933L8.92046 23.0827C8.92046 22.8829 9.08183 22.7216 9.28158 22.7216C9.48019 22.7216 9.64269 22.8829 9.64269 23.0827L9.64382 23.0826ZM9.96995 20.943C10.111 21.0841 10.111 21.3131 9.96995 21.4542L8.38668 23.0375C8.24562 23.1785 8.01655 23.1785 7.87548 23.0375L7.16001 22.3231C7.01895 22.1821 7.01895 21.953 7.16001 21.8119C7.30107 21.6709 7.52901 21.6709 7.67008 21.8119L8.12936 22.2712L9.45872 20.9419V20.943C9.59978 20.8019 9.82773 20.8031 9.96879 20.943L9.96995 20.943ZM5.91304 18.1918V15.1856C5.91304 14.9858 6.07554 14.8245 6.27415 14.8245H8.3009C8.50065 14.8245 8.66202 14.9858 8.66202 15.1856C8.66202 15.3853 8.50065 15.5467 8.3009 15.5467H6.63527V17.8307H8.91931L8.92043 17.3534C8.92043 17.1537 9.08181 16.9923 9.28155 16.9923C9.48016 16.9923 9.64266 17.1537 9.64266 17.3534V18.193V18.1918C9.64266 18.2878 9.6043 18.3803 9.53658 18.448C9.46887 18.5157 9.37634 18.553 9.28155 18.553H6.27419C6.07557 18.553 5.91304 18.3915 5.91304 18.1918ZM9.96876 15.2136C10.1098 15.3547 10.1098 15.5826 9.96876 15.7248L8.38549 17.3081C8.24443 17.4491 8.01537 17.4491 7.8743 17.3081L7.15996 16.5926C7.08999 16.526 7.05049 16.4335 7.04937 16.3364C7.04824 16.2394 7.08661 16.1468 7.15544 16.078C7.22428 16.0092 7.31682 15.9708 7.41387 15.9719C7.51092 15.9731 7.60345 16.0126 7.67003 16.0825L8.12931 16.5418L9.45868 15.2124C9.59974 15.0725 9.8277 15.0725 9.96876 15.2136ZM5.91304 12.4624V9.45616C5.91304 9.25642 6.07554 9.09505 6.27415 9.09505H8.3009C8.50065 9.09505 8.66202 9.25642 8.66202 9.45616C8.66202 9.65591 8.50065 9.81728 8.3009 9.81728H6.63527V12.1002H8.91931L8.92043 11.6229C8.92043 11.4242 9.08181 11.2617 9.28155 11.2617C9.48016 11.2617 9.64266 11.4242 9.64266 11.6229V12.4613C9.64266 12.5572 9.6043 12.6486 9.53658 12.7163C9.46887 12.784 9.37747 12.8224 9.28155 12.8224H6.27419C6.07557 12.8224 5.91417 12.661 5.91304 12.4624ZM9.96876 9.48306C10.1098 9.62412 10.1098 9.85318 9.96876 9.99425L8.38549 11.5775C8.31778 11.6452 8.22525 11.6836 8.12933 11.6836C8.03454 11.6836 7.942 11.6452 7.87429 11.5775L7.15995 10.8632C7.01889 10.7221 7.01889 10.4931 7.15995 10.352C7.30101 10.2109 7.52895 10.2109 7.67002 10.352L8.1293 10.8113L9.45866 9.4819V9.48303C9.59972 9.3431 9.8277 9.34312 9.96876 9.48306ZM18.4131 9.74148C18.4131 9.83627 18.3758 9.92881 18.3081 9.99652C18.2404 10.0642 18.1479 10.1026 18.052 10.1026H11.4028C11.2031 10.1026 11.0417 9.94009 11.0417 9.74148C11.0417 9.54174 11.2031 9.38037 11.4028 9.38037H18.052C18.1479 9.38037 18.2404 9.41761 18.3081 9.48531C18.3758 9.55302 18.4131 9.64556 18.4131 9.74148ZM18.4119 12.2174L18.4131 12.2162C18.4131 12.3122 18.3758 12.4047 18.3081 12.4724C18.2404 12.5401 18.1479 12.5774 18.052 12.5774H11.4028C11.2031 12.5774 11.0417 12.416 11.0417 12.2162C11.0417 12.0176 11.2031 11.8551 11.4028 11.8551H18.052C18.2517 11.8551 18.4131 12.0165 18.4131 12.2151L18.4119 12.2174ZM18.4131 15.4709C18.4131 15.5668 18.3758 15.6582 18.3081 15.7259C18.2404 15.7936 18.1479 15.832 18.052 15.832H11.4028C11.2031 15.832 11.0417 15.6706 11.0417 15.4709C11.0417 15.2712 11.2031 15.1098 11.4028 15.1098H18.052C18.1479 15.1098 18.2404 15.1481 18.3081 15.2159C18.3758 15.2836 18.4131 15.375 18.4131 15.4709ZM14.3134 17.9468C14.3134 18.0427 14.275 18.1341 14.2073 18.2018C14.1396 18.2695 14.0471 18.3079 13.9523 18.3079H11.403C11.2033 18.3079 11.0419 18.1465 11.0419 17.9468C11.0419 17.747 11.2033 17.5857 11.403 17.5857H13.9523C14.0471 17.5857 14.1396 17.624 14.2073 17.6917C14.275 17.7595 14.3134 17.8509 14.3134 17.9468ZM14.3134 21.2003C14.3134 21.2962 14.275 21.3887 14.2073 21.4564C14.1396 21.5242 14.0471 21.5614 13.9523 21.5614H11.403C11.2033 21.5614 11.0419 21.4 11.0419 21.2003C11.0419 21.0017 11.2033 20.8392 11.403 20.8392H13.9523C14.1509 20.8392 14.3123 21.0005 14.3134 21.2003ZM13.0438 23.6762C13.0438 23.7721 13.0055 23.8635 12.9378 23.9312C12.8701 23.9989 12.7787 24.0373 12.6827 24.0373H11.403C11.2033 24.0373 11.0419 23.8759 11.0419 23.6762C11.0419 23.4764 11.2033 23.3151 11.403 23.3151H12.6827C12.7787 23.3151 12.8701 23.3534 12.9378 23.4211C13.0055 23.4888 13.0438 23.5803 13.0438 23.6762ZM9.88747 5.15327C9.88747 4.95353 10.0488 4.79216 10.2486 4.79216H18.0801C18.2788 4.79216 18.4413 4.95353 18.4413 5.15327C18.4413 5.35301 18.2788 5.51439 18.0801 5.51439H10.2486C10.0488 5.51439 9.88747 5.35301 9.88747 5.15327ZM18.0801 7.49601H10.2486C10.0488 7.49601 9.88747 7.33351 9.88747 7.1349C9.88747 6.93515 10.0488 6.77378 10.2486 6.77378H18.0801C18.2788 6.77378 18.4413 6.93515 18.4413 7.1349C18.4413 7.33351 18.2788 7.49601 18.0801 7.49601Z" fill="#333333"/>
</svg>
