<svg width="32" height="32" viewBox="0 0 32 32" fill="none" xmlns="http://www.w3.org/2000/svg">
<path d="M28.9146 23.5235L26.4543 20.3388C26.3776 20.2393 26.2584 20.1802 26.132 20.1802H24.45V19.3169C24.45 19.092 24.2676 18.9107 24.0438 18.9107H23.479V11.0043C23.479 10.8686 23.4116 10.7422 23.2986 10.6665L13.4659 4.06918C13.3291 3.97694 13.1498 3.97694 13.0131 4.06918L3.18032 10.6665C3.06736 10.7422 3 10.8686 3 11.0043V25.6685C3 25.8934 3.1824 26.0748 3.40623 26.0748H15.5139V27.3163C15.5139 27.5412 15.6963 27.7226 15.9202 27.7226H17.0508C17.227 28.3236 17.7835 28.7631 18.4406 28.7631C19.0987 28.7631 19.6541 28.3226 19.8303 27.7226H24.9303C25.1065 28.3236 25.6619 28.7631 26.319 28.7631C26.9771 28.7631 27.5325 28.3226 27.7087 27.7226H28.5927C28.8176 27.7226 28.999 27.5402 28.999 27.3163L29 23.7721C29 23.682 28.9699 23.5949 28.915 23.5234L28.9146 23.5235ZM25.9331 20.9948L27.7643 23.366H24.4512V20.9948H25.9331ZM3.81329 11.221L13.2398 4.89718L22.6664 11.222V18.9127H20.3802V14.3972H20.7087C20.9336 14.3972 21.115 14.2148 21.115 13.991V12.4707C21.115 12.2458 20.9326 12.0644 20.7087 12.0644H5.76887C5.54399 12.0644 5.36264 12.2468 5.36264 12.4707V13.991C5.36264 14.2159 5.54504 14.3972 5.76887 14.3972H6.09947V25.2612H3.81329V11.221ZM8.46434 19.1862C8.68923 19.1862 8.87058 19.0038 8.87058 18.78V18.24H10.0168V21.3428H6.91191V18.24H8.05811V18.78C8.05811 19.0049 8.24051 19.1862 8.46434 19.1862ZM6.17506 13.5838V12.877H20.3015V13.5838H6.17506ZM6.91189 22.1563H8.05808V22.6963C8.05808 22.9212 8.24048 23.1025 8.46432 23.1025C8.68921 23.1025 8.87055 22.9201 8.87055 22.6963V22.1563H10.0167V25.2612H6.91189V22.1563ZM10.8304 25.2612V22.1563H11.9746V22.6963C11.9746 22.9212 12.157 23.1025 12.3808 23.1025C12.6057 23.1025 12.787 22.9201 12.787 22.6963V22.1563H13.9332V25.2612H10.8304ZM15.5125 19.3189V25.2612H14.7477V21.7501C14.7477 21.5252 14.5653 21.3439 14.3415 21.3439L10.8304 21.3429V17.8329C10.8304 17.608 10.648 17.4266 10.4242 17.4266H6.9121V14.3974H19.5669V18.9118H15.92C15.6951 18.9118 15.5127 19.0942 15.5127 19.3191L15.5125 19.3189ZM18.4402 27.9506C18.0899 27.9506 17.8049 27.6666 17.8049 27.3163C17.8049 26.9661 18.0899 26.6811 18.4402 26.6811C18.7905 26.6811 19.0754 26.9661 19.0754 27.3163C19.0754 27.6656 18.7905 27.9506 18.4402 27.9506ZM18.4402 25.8675C17.7821 25.8675 17.2266 26.308 17.0504 26.9101H16.327V19.7262H23.6386V26.9111L19.8309 26.9091C19.6547 26.308 19.0983 25.8675 18.4402 25.8675ZM26.3184 27.9506C25.9692 27.9506 25.6842 27.6666 25.6842 27.3163C25.6842 26.9661 25.9681 26.6811 26.3184 26.6811C26.6687 26.6811 26.9537 26.9661 26.9537 27.3163C26.9537 27.6656 26.6687 27.9506 26.3184 27.9506ZM27.7092 26.909C27.533 26.308 26.9765 25.8665 26.3184 25.8665C25.6613 25.8665 25.1059 26.3069 24.9297 26.909H24.4509V24.1793H28.1859V26.9101H27.7091L27.7092 26.909Z" fill="black" stroke="black" stroke-width="0.2"/>
</svg>
