<svg width="32" height="32" viewBox="0 0 32 32" fill="none" xmlns="http://www.w3.org/2000/svg">
<path d="M11.0512 10.5918H7.44189V11.5656H11.0512V10.5918Z" fill="#333333"/>
<path d="M14.6745 8.33765H7.42773V9.31141H14.6745V8.33765Z" fill="#333333"/>
<path d="M16.8747 6.08325H7.38794V7.05701H16.8747V6.08325Z" fill="#333333"/>
<path d="M26.1828 10.4645C26.001 10.4645 25.8415 10.5855 25.7926 10.7606L24.7861 14.3619L21.5747 14.5854C21.463 14.0927 21.2621 13.6342 20.986 13.2301L20.9863 3H4V22.5935H10.4531L10.557 23.0633C10.5981 23.2491 10.7625 23.3811 10.9527 23.3811H22.2654L21.7672 25.1634H12.9964V25.1796C12.9431 25.1854 12.8898 25.1903 12.8366 25.2004C12.0776 25.3466 11.4715 25.9551 11.3279 26.7158C11.2101 27.3471 11.4083 27.9918 11.8582 28.4402C12.2209 28.802 12.7112 28.9997 13.2184 28.9997C13.3397 28.9997 13.4624 28.9884 13.5843 28.9653C14.3433 28.8217 14.9506 28.215 15.0959 27.4554C15.196 26.9306 15.0745 26.3977 14.774 25.9736H20.9423C20.7874 26.1919 20.6754 26.442 20.6241 26.7129C20.5049 27.3451 20.7026 27.9906 21.1527 28.4399C21.5157 28.8023 22.0058 29 22.5132 29C22.6356 29 22.759 28.9884 22.8817 28.965C23.6415 28.8197 24.248 28.2115 24.3913 27.4513C24.5105 26.8189 24.3125 26.1731 23.8618 25.7235C23.524 25.3869 23.0765 25.1926 22.6073 25.1672L26.4899 11.2747H28.1283V10.4642H26.1828V10.4645ZM14.2998 27.3031C14.2176 27.7315 13.8613 28.0876 13.4335 28.1686C13.0598 28.2399 12.6942 28.129 12.4305 27.8662C12.1665 27.603 12.055 27.2377 12.1245 26.8652C12.207 26.4292 12.5546 26.0798 12.99 25.9959C13.0653 25.9814 13.1399 25.9742 13.2138 25.9742C13.5076 25.9742 13.784 26.0871 13.9959 26.2984C14.2605 26.5627 14.3713 26.9289 14.2998 27.3031ZM20.02 13.7601L17.7743 17.6291L16.8092 16.5092L15.7457 15.2801L16.0778 14.8798L17.4634 15.7311L19.5954 13.4411L20.02 13.7601ZM5.44734 21.1462V4.44734H19.5389L19.5386 11.9472C18.9912 11.6617 18.37 11.4982 17.7101 11.4982C15.632 11.4982 13.9308 13.0961 13.7606 15.1293L9.34821 15.4364C9.23068 15.4445 9.12242 15.5036 9.05179 15.5979C8.98116 15.6923 8.95511 15.813 8.98058 15.9279L10.1332 21.1462H5.44734ZM23.2898 26.2975C23.5544 26.5612 23.6656 26.9271 23.5949 27.3014C23.5142 27.7301 23.1584 28.087 22.7297 28.1689C22.3563 28.2404 21.9896 28.1301 21.7253 27.8662C21.461 27.6024 21.3501 27.2371 21.4205 26.8634C21.5018 26.4342 21.8576 26.0772 22.2857 25.9953C22.3604 25.9811 22.4348 25.9742 22.508 25.9742C22.8018 25.9739 23.0782 26.0868 23.2898 26.2975ZM22.4921 22.5706H11.2781L9.8733 16.2122L13.775 15.9407C14.0107 17.9061 15.6806 19.4302 17.7101 19.4302C19.8999 19.4302 21.6758 17.6546 21.6758 15.4642C21.6758 15.4396 21.6726 15.4156 21.672 15.3912L24.5545 15.1906L22.4921 22.5706Z" fill="#333333"/>
</svg>
