<svg width="24" height="24" viewBox="0 0 24 24" fill="none" xmlns="http://www.w3.org/2000/svg">
<path d="M4.26964 15.1204L2.36133 11.8196H6.17795L4.26964 15.1204Z" fill="#E8B931"/>
<path d="M4.26934 15.5328L2 11.613H6.53868L4.26934 15.5328ZM2.67049 12.0256L4.26934 14.7592L5.86819 12.0256H2.67049Z" fill="#E8B931"/>
<path d="M14.8425 14.7594C14.6878 14.7594 14.5331 14.7078 14.4299 14.6562L11.9543 13.0574C11.748 12.9027 11.5933 12.6448 11.5933 12.3869V8.15767C11.5933 7.74506 11.9543 7.38403 12.3669 7.38403C12.7795 7.38403 13.1405 7.74506 13.1405 8.15767V11.9743L15.2552 13.3153C15.6162 13.5731 15.7193 14.0373 15.513 14.3984C15.3583 14.6047 15.1004 14.7594 14.8425 14.7594Z" fill="#E8B931" stroke="#E8B931" stroke-width="0.5"/>
<path d="M12.5214 21C12.1088 21 11.7478 20.639 11.7478 20.2264C11.7478 19.8138 12.1088 19.4527 12.5214 19.4527C16.6475 19.4527 19.9999 16.1003 19.9999 12.0258C19.9999 7.89971 16.6475 4.59885 12.5214 4.59885C8.39532 4.59885 5.04288 7.95129 5.04288 12.0258C5.04288 12.4384 4.68185 12.7994 4.26924 12.7994C3.85664 12.7994 3.49561 12.4384 3.49561 12.0258C3.49561 7.0745 7.5701 3 12.573 3C17.5758 3 21.5988 7.02292 21.5988 11.9742C21.5988 16.9255 17.5243 21 12.5214 21Z" fill="#E8B931" stroke="#E8B931" stroke-width="0.5"/>
<path d="M10.0461 20.7421C10.4734 20.7421 10.8197 20.3957 10.8197 19.9685C10.8197 19.5412 10.4734 19.1948 10.0461 19.1948C9.61883 19.1948 9.27246 19.5412 9.27246 19.9685C9.27246 20.3957 9.61883 20.7421 10.0461 20.7421Z" fill="#E8B931"/>
<path d="M10.0457 20.7936C9.58155 20.7936 9.16895 20.4326 9.16895 19.9168C9.16895 19.4011 9.52998 19.04 10.0457 19.04C10.5615 19.04 10.9225 19.4011 10.9225 19.9168C10.9225 20.4326 10.5615 20.7936 10.0457 20.7936ZM10.0457 19.2979C9.68471 19.2979 9.37525 19.6074 9.37525 19.9684C9.37525 20.3294 9.68471 20.6389 10.0457 20.6389C10.4068 20.6389 10.7162 20.3294 10.7162 19.9684C10.7162 19.6074 10.4583 19.2979 10.0457 19.2979Z" fill="#E8B931"/>
<path d="M7.519 19.5558C7.94627 19.5558 8.29264 19.2095 8.29264 18.7822C8.29264 18.3549 7.94627 18.0085 7.519 18.0085C7.09173 18.0085 6.74536 18.3549 6.74536 18.7822C6.74536 19.2095 7.09173 19.5558 7.519 19.5558Z" fill="#E8B931"/>
<path d="M7.51864 19.6073C7.05445 19.6073 6.64185 19.2463 6.64185 18.7305C6.64185 18.2664 7.00288 17.8538 7.51864 17.8538C8.0344 17.8538 8.39543 18.2148 8.39543 18.7305C8.34385 19.2463 7.98282 19.6073 7.51864 19.6073ZM7.51864 18.1116C7.15761 18.1116 6.84815 18.4211 6.84815 18.7821C6.84815 19.1432 7.15761 19.4526 7.51864 19.4526C7.87967 19.4526 8.18912 19.1432 8.18912 18.7821C8.18912 18.3695 7.87967 18.1116 7.51864 18.1116Z" fill="#E8B931"/>
<path d="M5.55855 17.5959C5.98582 17.5959 6.33219 17.2495 6.33219 16.8222C6.33219 16.395 5.98582 16.0486 5.55855 16.0486C5.13128 16.0486 4.78491 16.395 4.78491 16.8222C4.78491 17.2495 5.13128 17.5959 5.55855 17.5959Z" fill="#E8B931"/>
<path d="M5.55892 17.6476C5.09474 17.6476 4.68213 17.2866 4.68213 16.7708C4.68213 16.2551 5.04316 15.894 5.55892 15.894C6.07468 15.894 6.43571 16.2551 6.43571 16.7708C6.43571 17.2866 6.0231 17.6476 5.55892 17.6476ZM5.55892 16.1519C5.19789 16.1519 4.88843 16.4614 4.88843 16.8224C4.88843 17.1834 5.19789 17.4929 5.55892 17.4929C5.91995 17.4929 6.22941 17.1834 6.22941 16.8224C6.22941 16.4614 5.91995 16.1519 5.55892 16.1519Z" fill="#E8B931"/>
</svg>
