<svg width="24" height="24" viewBox="0 0 24 24" fill="none" xmlns="http://www.w3.org/2000/svg">
<path fill-rule="evenodd" clip-rule="evenodd" d="M6.35375 2.78698C6.35375 2.35234 6.70609 2 7.14073 2H17.1866L19.7348 4.73615V18.9149C19.7348 19.3495 19.3824 19.7019 18.9478 19.7019H18.7519V20.213C18.7519 20.6477 18.3996 21 17.9649 21H5.78698C5.35235 21 5 20.6477 5 20.213V4.14073C5 3.70609 5.35234 3.35375 5.78698 3.35375H6.35375V2.78698ZM6.35375 4.36558H6.01183V19.9882H17.7401V19.7019H7.14073C6.70609 19.7019 6.35375 19.3495 6.35375 18.9149V4.36558ZM7.36558 3.01183V18.6901H18.7229V5.44116H17.2475C16.8128 5.44116 16.4605 5.08882 16.4605 4.65418V3.01183H7.36558ZM17.4723 3.79149L18.0664 4.42933H17.4723V3.79149Z" fill="#E8B931"/>
<path d="M8.60132 16.2969C8.60132 16.1313 8.73554 15.9971 8.90112 15.9971C9.0667 15.9971 9.20092 16.1313 9.20092 16.2969V18.2456H8.60132V16.2969Z" fill="#E8B931"/>
<path d="M15.9463 16.2969C15.9463 16.1313 16.0805 15.9971 16.2461 15.9971C16.4117 15.9971 16.5459 16.1313 16.5459 16.2969V18.2456H15.9463V16.2969Z" fill="#E8B931"/>
<path d="M11.5994 14.7978C11.5994 14.6323 11.7336 14.498 11.8992 14.498C12.0647 14.498 12.199 14.6323 12.199 14.7978V18.2456H11.5994V14.7978Z" fill="#E8B931"/>
<path d="M14.4475 14.7978C14.4475 14.6323 14.5817 14.498 14.7473 14.498C14.9129 14.498 15.0471 14.6323 15.0471 14.7978V18.2456H14.4475V14.7978Z" fill="#E8B931"/>
<path d="M13.0984 15.5474C13.0984 15.3818 13.2326 15.2476 13.3982 15.2476C13.5638 15.2476 13.698 15.3818 13.698 15.5474V18.2456H13.0984V15.5474Z" fill="#E8B931"/>
<path d="M10.1003 15.5474C10.1003 15.3818 10.2346 15.2476 10.4001 15.2476C10.5657 15.2476 10.6999 15.3818 10.6999 15.5474V18.2456H10.1003V15.5474Z" fill="#E8B931"/>
<rect x="7.60156" y="17.6011" width="10.7187" height="0.749507" rx="0.374753" fill="#E8B931"/>
<rect x="7.85156" y="3.46436" width="7.86982" height="0.843195" rx="0.421598" fill="#E8B931"/>
<rect x="7.85156" y="4.75439" width="7.86982" height="0.843195" rx="0.421598" fill="#E8B931"/>
<rect x="7.85156" y="6.25342" width="8.43195" height="0.843195" rx="0.421598" fill="#E8B931"/>
<rect x="7.85156" y="7.75244" width="9.55621" height="0.843195" rx="0.421598" fill="#E8B931"/>
<rect x="7.85156" y="9.25146" width="9.55621" height="0.843195" rx="0.421598" fill="#E8B931"/>
<rect x="7.85156" y="10.7505" width="6.18343" height="0.843195" rx="0.421598" fill="#E8B931"/>
<rect x="7.85156" y="12.2495" width="4.49704" height="0.843195" rx="0.421598" fill="#E8B931"/>
</svg>
