<svg width="16" height="17" viewBox="0 0 16 17" fill="none" xmlns="http://www.w3.org/2000/svg">
<path d="M6.56396 13.7466C3.05273 13.7466 0.180664 10.8745 0.180664 7.36328C0.180664 3.85205 3.05273 0.97998 6.56396 0.97998C10.0752 0.97998 12.9473 3.85205 12.9473 7.36328C12.9473 8.81592 12.4575 10.1523 11.6357 11.2314L15.5454 15.1494C15.728 15.332 15.811 15.5645 15.811 15.8135C15.811 16.3447 15.4292 16.7598 14.8896 16.7598C14.6323 16.7598 14.3916 16.6685 14.209 16.4858L10.2744 12.5513C9.22852 13.2983 7.9502 13.7466 6.56396 13.7466ZM6.56396 12.3687C9.30322 12.3687 11.5693 10.1025 11.5693 7.36328C11.5693 4.62402 9.30322 2.35791 6.56396 2.35791C3.82471 2.35791 1.55859 4.62402 1.55859 7.36328C1.55859 10.1025 3.82471 12.3687 6.56396 12.3687Z" fill="#BDBDBD"/>
</svg>
